<?xml version="1.0" encoding="UTF-8"?>
<svg width="19px" height="19px" viewBox="0 0 19 19" version="1.1" xmlns="http://www.w3.org/2000/svg" xmlns:xlink="http://www.w3.org/1999/xlink">
    <!-- Generator: Sketch 52.3 (67297) - http://www.bohemiancoding.com/sketch -->
    <title>Logo/Freshchat/logo</title>
    <desc>Created with Sketch.</desc>
    <g id="User-management" stroke="none" stroke-width="1" fill="none" fill-rule="evenodd">
        <g id="List-of-forms-Copy-119" transform="translate(-500.000000, -612.000000)" fill-rule="nonzero">
            <g id="Group-15" transform="translate(480.000000, 311.000000)">
                <g id="Group-23-Copy" transform="translate(12.000000, 293.007788)">
                    <g id="Group-21">
                        <g id="Logo/Freshchat/logo" transform="translate(8.000000, 8.000000)">
                            <path d="M9.5,19 C4.256,19 0,14.744 0,9.5 C0,4.256 4.256,0 9.5,0 L16.625,0 C17.936,0 19,1.064 19,2.375 L19,9.5 C19,14.744 14.744,19 9.5,19 Z" id="Shape" fill="#45A4EC"></path>
                            <path d="M12.407,5.624 L7.657,5.624 C6.346,5.624 5.282,6.688 5.282,7.999 L5.282,12.046 C5.282,12.331 5.51,12.578 5.814,12.578 L12.407,12.578 C13.718,12.578 14.782,11.514 14.782,10.203 L14.782,7.999 C14.782,6.688 13.718,5.624 12.407,5.624 Z M10.697,10.716 L7.258,10.716 C7.011,10.716 6.802,10.507 6.802,10.26 C6.802,10.013 7.011,9.804 7.258,9.804 L10.697,9.804 C10.944,9.804 11.153,10.013 11.153,10.26 C11.153,10.507 10.944,10.716 10.697,10.716 Z M12.806,8.455 L7.258,8.455 C7.011,8.455 6.802,8.246 6.802,7.999 C6.802,7.752 7.011,7.543 7.258,7.543 L12.806,7.543 C13.053,7.543 13.262,7.752 13.262,7.999 C13.262,8.246 13.072,8.455 12.806,8.455 Z" id="Shape" fill="#FFFFFF"></path>
                        </g>
                    </g>
                </g>
            </g>
        </g>
    </g>
</svg>