<?xml version="1.0" encoding="utf-8"?>
<!-- Generator: Adobe Illustrator 19.2.0, SVG Export Plug-In . SVG Version: 6.00 Build 0)  -->
<svg version="1.1" id="Layer_1" xmlns="http://www.w3.org/2000/svg" xmlns:xlink="http://www.w3.org/1999/xlink" x="0px" y="0px"
	 viewBox="0 0 100 100" style="enable-background:new 0 0 100 100;" xml:space="preserve">
<style type="text/css">
	.st0{fill:#08C7FB;}
	.st1{fill:#FFFFFF;}
</style>
<title>freshworks-dew</title>
<g>
	<path class="st0" d="M50,100L50,100C22.4,100,0,77.6,0,50v0C0,22.4,22.4,0,50,0h37.5C94.4,0,100,5.6,100,12.5V50
		C100,77.6,77.6,100,50,100z"/>
	<path class="st1" d="M49.3,74.7c0.6,0.4,1.5,0.3,1.9-0.3L67,52.5l3.7-5.1c0.9-1.2,0-2.9-1.5-2.9h-7.1H45.4l5.8-17.7
		c0.2-0.6,0-1.2-0.5-1.6c-0.6-0.4-1.5-0.3-1.9,0.3L33,47.5l-3.7,5.1c-0.9,1.2,0,2.9,1.5,2.9h7.1h16.7l-5.8,17.7
		C48.6,73.7,48.8,74.4,49.3,74.7z"/>
</g>
</svg>
