<?xml version="1.0" encoding="utf-8"?>
<!-- Generator: Adobe Illustrator 19.2.0, SVG Export Plug-In . SVG Version: 6.00 Build 0)  -->
<svg version="1.1" id="Layer_1" xmlns="http://www.w3.org/2000/svg" xmlns:xlink="http://www.w3.org/1999/xlink" x="0px" y="0px"
	 viewBox="0 0 100 100" style="enable-background:new 0 0 100 100;" xml:space="preserve">
<style type="text/css">
	.st0{fill:#25C16F;}
	.st1{fill:#FFFFFF;}
</style>
<title>freshworks-dew</title>
<g>
	<path class="st0" d="M50,100L50,100C22.4,100,0,77.6,0,50v0C0,22.4,22.4,0,50,0h37.5C94.4,0,100,5.6,100,12.5V50
		C100,77.6,77.6,100,50,100z"/>
	<path class="st1" d="M50,22.2c-12.8,0-23,10.2-23,23v15.3c0,4.2,3.4,7.7,7.7,7.7h6.4V50.3h-8.9v-5.1c0-9.9,8-17.9,17.9-17.9
		s17.9,8,17.9,17.9v5.1h-8.9v17.9h6v0.4c0,3.8-3.1,6.9-6.9,6.9h-6.9c-0.6,0-1.1,0.5-1.1,1.1l0,0c0,0.6,0.5,1.1,1.1,1.1H58
		c5.1,0,9.2-4.1,9.2-9.2V68c3.3-0.9,5.7-3.9,5.7-7.4V45.2C73,32.4,62.7,22.2,50,22.2z"/>
</g>
</svg>
