<?xml version="1.0" encoding="UTF-8"?>
<svg width="64px" height="64px" viewBox="0 0 64 64" version="1.1" xmlns="http://www.w3.org/2000/svg" xmlns:xlink="http://www.w3.org/1999/xlink">
    <!-- Generator: Sketch 49 (51002) - http://www.bohemiancoding.com/sketch -->
    <title>freshconnect</title>
    <desc>Created with Sketch.</desc>
    <defs></defs>
    <g id="Page-3" stroke="none" stroke-width="1" fill="none" fill-rule="evenodd">
        <g id="freshconnect">
            <path d="M32,64 C14.336,64 0,49.664 0,32 C0,14.336 14.336,0 32,0 L56,0 C60.416,0 64,3.584 64,8 L64,32 C64,49.664 49.664,64 32,64" id="Fill-1-Copy" fill="#00B3B3"></path>
            <path d="M24.1253333,37.0168889 L30.8946667,25.292 C31.2493333,25.3773333 31.6191111,25.4226667 32,25.4226667 C32.3804444,25.4226667 32.7502222,25.3773333 33.1048889,25.292 L39.8742222,37.0168889 C39.3662222,37.5511111 38.9826667,38.204 38.7688889,38.9302222 L25.2311111,38.9302222 C25.0173333,38.204 24.6333333,37.5511111 24.1253333,37.0168889 M43.2884444,35.552 C42.9075556,35.552 42.5377778,35.5977778 42.1831111,35.6826667 L35.4137778,23.9577778 C36.2177778,23.1128889 36.7111111,21.9697778 36.7111111,20.7111111 C36.7111111,18.1093333 34.6017778,16 32,16 C29.3977778,16 27.2884444,18.1093333 27.2884444,20.7111111 C27.2884444,21.9697778 27.7817778,23.1128889 28.5857778,23.9577778 L21.8164444,35.6826667 C21.4617778,35.5977778 21.092,35.552 20.7111111,35.552 C18.1093333,35.552 16,37.6613333 16,40.2635556 C16,42.8657778 18.1093333,44.9751111 20.7111111,44.9751111 C22.8502222,44.9751111 24.656,43.5497778 25.2311111,41.5968889 L38.7688889,41.5968889 C39.344,43.5497778 41.1493333,44.9751111 43.2884444,44.9751111 C45.8906667,44.9751111 48,42.8657778 48,40.2635556 C48,37.6613333 45.8906667,35.552 43.2884444,35.552" id="Fill-3-Copy" fill="#FFFFFF"></path>
        </g>
    </g>
</svg>