<svg xmlns="http://www.w3.org/2000/svg" xmlns:xlink="http://www.w3.org/1999/xlink" width="193" height="40" viewBox="0 0 193 40">
    <defs>
        <path id="a" d="M.067 0h15.225v27.753H.067V0z"/>
    </defs>
    <g fill="none" fill-rule="evenodd">
        <path fill="#4D4D4D" d="M49.649 1.023c-5.113 0-6.936 3.489-6.936 6.753v1.999H41.64c-.787 0-1.402.603-1.402 1.374 0 .77.615 1.373 1.402 1.373h1.073v13.782c0 .812.65 1.449 1.48 1.449s1.48-.637 1.48-1.45V12.523h3.28c.785 0 1.402-.603 1.402-1.373 0-.771-.617-1.374-1.403-1.374h-3.279v-2c0-1.826.69-4.005 3.976-4.005.786 0 1.403-.603 1.403-1.373s-.617-1.374-1.403-1.374M61.216 9.32c-2.205 0-4.09.885-5.135 2.36v-.759c0-.813-.65-1.449-1.481-1.449-.83 0-1.48.636-1.48 1.45v15.381c0 .813.65 1.45 1.48 1.45s1.48-.637 1.48-1.45v-8.486c0-3.553 1.92-5.674 5.136-5.674.794 0 1.442-.634 1.442-1.41 0-.78-.648-1.413-1.442-1.413M71.74 11.916c3.054 0 4.636 1.688 4.707 5.02h-9.9c.306-3.24 2.143-5.02 5.192-5.02m7.633 4.954c0-.837-.14-2.979-1.417-4.795-1.322-1.878-3.414-2.83-6.216-2.83-5.218 0-8.212 3.4-8.212 9.33 0 6.128 2.974 9.367 8.6 9.367 3.778 0 5.832-1.825 6.206-2.191.251-.245.496-.528.496-1.038 0-.736-.611-1.336-1.364-1.336-.39 0-.598.115-.841.274-1.09.801-2.334 1.582-4.498 1.582-3.379 0-5.506-2.177-5.597-5.702h11.052c1.79 0 1.79-1.601 1.79-2.661M89.378 17.108c-2.215-.747-4.127-1.393-4.127-3.004 0-1.772 2.006-2.037 3.202-2.037 2.137 0 3.209.734 4.046 1.522.278.273.609.41.983.41.752 0 1.364-.6 1.364-1.335 0-.394-.17-.668-.319-.863-1.255-1.624-3.412-2.518-6.074-2.518-3.8 0-6.162 1.847-6.162 4.82 0 3.637 3.258 4.716 6.131 5.669 2.17.718 4.044 1.339 4.044 2.895 0 2.134-2.418 2.453-3.859 2.453-1.963 0-3.515-.585-4.742-1.787-.379-.371-.765-.448-1.022-.448-.753 0-1.364.598-1.364 1.335 0 .309.085.542.322.867 1.13 1.402 3.671 2.817 6.806 2.817 4.27 0 6.82-1.958 6.82-5.237 0-3.518-3.214-4.602-6.049-5.56"/>
        <g transform="translate(99.053)">
            <mask id="b" fill="#fff">
                <use xlink:href="#a"/>
            </mask>
            <path fill="#4D4D4D" d="M7.931 9.245c-2.042 0-3.873.795-4.903 2.078V1.45c0-.813-.65-1.45-1.48-1.45S.068.637.068 1.45v24.854c0 .813.65 1.449 1.48 1.449s1.48-.636 1.48-1.45v-9.357c0-3.363 1.649-5.068 4.903-5.068 3.126 0 4.402 1.392 4.402 4.803v9.623c0 .813.65 1.449 1.48 1.449s1.479-.636 1.479-1.45V16.189c0-4.607-2.476-6.943-7.36-6.943" mask="url(#b)"/>
        </g>
        <path fill="#4D4D4D" d="M124.704 12.522c.786 0 1.402-.603 1.402-1.374 0-.77-.616-1.373-1.402-1.373h-2.273V6.034c0-.799-.664-1.45-1.48-1.45-.788 0-1.48.678-1.48 1.45v3.741h-1.267c-.787 0-1.403.603-1.403 1.373 0 .771.616 1.374 1.403 1.374h1.266v10.22c0 3.044 1.949 5.011 4.962 5.011.809 0 1.442-.604 1.442-1.373 0-.771-.633-1.374-1.442-1.374-1.253 0-2.001-.846-2.001-2.264v-10.22h2.273zM136.349 11.916c3.054 0 4.637 1.688 4.707 5.02h-9.9c.305-3.24 2.143-5.02 5.193-5.02m7.63 4.954c0-.837-.137-2.979-1.415-4.795-1.322-1.878-3.413-2.83-6.215-2.83-5.22 0-8.212 3.4-8.212 9.33 0 6.128 2.973 9.367 8.598 9.367 3.778 0 5.834-1.825 6.207-2.191.252-.246.497-.528.497-1.038 0-.736-.612-1.336-1.365-1.336-.356 0-.558.09-.841.274-1.09.801-2.334 1.582-4.498 1.582-3.38 0-5.506-2.177-5.597-5.702h11.053c1.789 0 1.789-1.601 1.789-2.661M153.294 25.271c-1.902 0-4.169-.518-4.169-2.983 0-2.596 2.514-2.983 4.015-2.983h5.213v1.354c0 3.17-2.623 4.613-5.06 4.613m.736-16.027c-4.011 0-5.874 1.944-6.63 3.109a1.377 1.377 0 0 0-.228.764c0 .737.613 1.336 1.364 1.336.446 0 .78-.17 1.185-.607l.002-.002c1.206-1.334 2.413-1.854 4.307-1.854 2.708 0 4.324 1.47 4.324 3.931v.787h-5.213c-4.326 0-7.014 2.137-7.014 5.58 0 3.54 2.593 5.653 6.936 5.653 2.237 0 4.187-.817 5.29-2.175v.575c0 .779.647 1.41 1.443 1.41.794 0 1.44-.631 1.44-1.41v-10.42c0-4.119-2.76-6.678-7.206-6.678M184.941 9.245c-2.533 0-4.431.829-5.644 2.464-1.15-1.571-3.366-2.464-6.156-2.464-2.238 0-3.904.947-4.787 2.056v-.38c0-.812-.65-1.448-1.48-1.448s-1.48.636-1.48 1.449v15.382c0 .813.65 1.449 1.48 1.449s1.48-.636 1.48-1.45v-9.357c0-3.457 1.434-5.068 4.516-5.068 3.208 0 4.518 1.392 4.518 4.803v9.623c0 .813.65 1.449 1.48 1.449.829 0 1.48-.636 1.48-1.45V16.189c0-2.82 1.588-4.31 4.593-4.31 3.178 0 4.595 1.48 4.595 4.803v9.623c0 .813.65 1.449 1.48 1.449s1.479-.636 1.479-1.45V16.189c0-3.167-1.31-6.943-7.554-6.943"/>
        <path fill="#FF5969" d="M17.41 40C7.795 40 0 32.367 0 22.951s7.795-17.05 17.41-17.05h13.058c2.404 0 4.352 1.909 4.352 4.263v12.787C34.82 32.367 27.025 40 17.41 40"/>
        <path fill="#FFF" d="M17.41 31.476c3.231 0 6.05-1.724 7.553-4.283-1.509-2.536-4.316-4.241-7.53-4.241-3.23 0-6.049 1.722-7.55 4.282 1.506 2.537 4.314 4.242 7.527 4.242M20.81 17.783c0 1.854-1.534 3.356-3.427 3.356-1.894 0-3.428-1.502-3.428-3.356 0-1.854 1.534-3.357 3.428-3.357 1.893 0 3.428 1.503 3.428 3.357"/>
    </g>
</svg>
