<?xml version="1.0" encoding="UTF-8"?>
<svg width="232px" height="40px" viewBox="0 0 232 40" version="1.1" xmlns="http://www.w3.org/2000/svg" xmlns:xlink="http://www.w3.org/1999/xlink">
    <!-- Generator: Sketch 50.2 (55047) - http://www.bohemiancoding.com/sketch -->
    <title>logo-fconnect-grey copy 2</title>
    <desc>Created with Sketch.</desc>
    <defs></defs>
    <g id="Dev-guide" stroke="none" stroke-width="1" fill="none" fill-rule="evenodd">
        <g id="freshdesk-design-guide-ui-components" transform="translate(-517.000000, -868.000000)">
            <g id="logo-fconnect-white" transform="translate(517.000000, 868.000000)">
                <g id="Group" transform="translate(40.000000, 0.000000)" fill="#FFFFFF">
                    <path d="M9.2,1 C7,1 5.2,1.7 4.1,2.9 C3,4.2 2.4,5.8 2.4,7.7 L2.4,9.7 L1.4,9.7 C1,9.7 0.7,9.8 0.4,10.1 C0.1,10.4 0,10.7 0,11.1 C0,11.5 0.1,11.8 0.4,12.1 C0.7,12.4 1,12.5 1.4,12.5 L2.4,12.5 L2.4,26.3 C2.4,26.7 2.5,27.1 2.8,27.4 C3.1,27.7 3.4,27.8 3.8,27.8 C4.2,27.8 4.5,27.7 4.8,27.4 C5.1,27.1 5.2,26.8 5.2,26.3 L5.2,12.6 L8.4,12.6 C8.8,12.6 9.1,12.5 9.4,12.2 C9.7,11.9 9.8,11.6 9.8,11.2 C9.8,10.8 9.7,10.5 9.4,10.2 C9.1,9.9 8.8,9.8 8.4,9.8 L5.2,9.8 L5.2,7.8 C5.2,6.6 5.5,5.6 6.1,4.8 C6.7,4.1 7.7,3.7 9,3.7 C9.4,3.7 9.7,3.6 10,3.3 C10.3,3 10.4,2.7 10.4,2.3 C10.4,1.9 10.3,1.6 10,1.3 C9.9,1.1 9.6,1 9.2,1 Z" id="Shape" fill-rule="nonzero"></path>
                    <path d="M20.5,9.3 C19.2,9.3 18.1,9.6 17.1,10.2 C16.4,10.6 15.9,11.1 15.5,11.7 L15.5,11 C15.5,10.6 15.4,10.2 15.1,9.9 C14.5,9.4 13.6,9.4 13.1,9.9 C12.8,10.2 12.7,10.5 12.7,11 L12.7,26.4 C12.7,26.8 12.8,27.2 13.1,27.5 C13.4,27.8 13.7,27.9 14.1,27.9 C14.5,27.9 14.8,27.8 15.1,27.5 C15.4,27.2 15.5,26.9 15.5,26.4 L15.5,17.9 C15.5,16.2 15.9,14.8 16.8,13.7 C17.7,12.7 18.9,12.2 20.5,12.2 C20.9,12.2 21.2,12.1 21.5,11.8 C21.8,11.5 21.9,11.2 21.9,10.8 C21.9,10.4 21.8,10.1 21.5,9.8 C21.2,9.5 20.9,9.3 20.5,9.3 Z" id="Shape" fill-rule="nonzero"></path>
                    <path d="M37.5,13.1 C37.2,12.4 36.7,11.7 36.2,11.2 C35.7,10.6 34.9,10.2 34,9.8 C33.1,9.4 32,9.2 30.8,9.2 C28.3,9.2 26.3,10 24.9,11.7 C23.5,13.3 22.8,15.6 22.8,18.6 C22.8,21.7 23.5,24.1 25,25.7 C26.5,27.3 28.6,28 31.2,28 C33.8,28 35.8,27.3 37.3,25.8 C37.6,25.5 37.8,25.1 37.8,24.7 C37.8,24.3 37.7,24 37.4,23.7 C36.9,23.2 36.3,23.1 35.6,23.6 C34.2,24.7 32.7,25.2 31.2,25.2 C29.5,25.2 28.2,24.7 27.2,23.6 C26.3,22.6 25.8,21.2 25.7,19.5 L36.5,19.5 C36.9,19.5 37.2,19.4 37.5,19.3 C37.8,19.1 38,18.9 38.1,18.5 C38.2,18.2 38.2,18 38.3,17.7 C38.3,17.5 38.3,17.2 38.3,16.8 C38.3,16.2 38.2,15.6 38.1,15 C38,14.5 37.8,13.8 37.5,13.1 Z M30.8,12 C33.8,12 35.3,13.6 35.4,17 L25.7,17 C25.9,15.5 26.3,14.3 27.2,13.4 C28.1,12.4 29.3,12 30.8,12 Z" id="Shape" fill-rule="nonzero"></path>
                    <path d="M50.4,18 C49.4,17.6 48.4,17.3 47.4,17 C46.4,16.7 45.6,16.3 45,15.8 C44.4,15.4 44.1,14.8 44.1,14.2 C44.1,12.8 45.1,12.2 47.2,12.2 C48.8,12.2 50.1,12.7 51.2,13.7 C51.7,14.3 52.6,14.2 53.1,13.7 C53.4,13.4 53.5,13.1 53.5,12.7 C53.5,12.4 53.4,12.1 53.2,11.8 C51.9,10.1 49.9,9.3 47.2,9.3 C45.4,9.3 44,9.7 42.9,10.5 C41.8,11.3 41.2,12.5 41.2,14.1 C41.2,15.3 41.6,16.3 42.3,17.1 C43,17.9 43.9,18.5 44.9,18.9 C45.9,19.3 46.9,19.6 47.8,19.9 C48.7,20.2 49.6,20.6 50.2,21 C50.8,21.4 51.1,21.9 51.1,22.6 C51.1,23.4 50.8,24 50.1,24.4 C49.4,24.8 48.5,25 47.3,25 C45.4,25 43.8,24.4 42.7,23.2 C42.1,22.6 41.3,22.6 40.7,23.1 C40.4,23.4 40.3,23.7 40.3,24.1 C40.3,24.4 40.4,24.7 40.6,25 C41.2,25.7 42.1,26.4 43.3,27 C44.5,27.6 45.8,27.9 47.3,27.9 C49.2,27.9 50.8,27.5 52.1,26.6 C53.4,25.7 54,24.4 54,22.7 C54,21.5 53.6,20.5 52.9,19.7 C52.3,19 51.4,18.4 50.4,18 Z" id="Shape" fill-rule="nonzero"></path>
                    <path d="M65.4,9.3 C64.2,9.3 63.1,9.6 62.2,10.1 C61.6,10.5 61.1,10.9 60.7,11.4 L60.7,1.5 C60.7,1.1 60.6,0.7 60.3,0.4 C59.7,-0.1 58.8,-0.1 58.3,0.4 C58,0.7 57.9,1 57.9,1.5 L57.9,26.4 C57.9,26.8 58,27.2 58.3,27.5 C58.9,28 59.8,28 60.3,27.5 C60.6,27.2 60.7,26.9 60.7,26.4 L60.7,17 C60.7,13.6 62.3,11.9 65.5,11.9 C67.1,11.9 68.3,12.3 68.9,13.1 C69.5,13.9 69.8,15.1 69.8,16.7 L69.8,26.4 C69.8,26.8 69.9,27.2 70.2,27.4 C70.5,27.7 70.8,27.8 71.2,27.8 C71.6,27.8 72,27.7 72.2,27.4 C72.5,27.1 72.6,26.8 72.6,26.3 L72.6,16.2 C72.6,11.6 70.1,9.3 65.4,9.3 Z" id="Shape" fill-rule="nonzero"></path>
                    <path d="M87.8,23.7 C86.4,24.8 85,25.3 83.6,25.3 C80.2,25.3 78.5,23.1 78.5,18.6 C78.5,14.1 80.2,11.9 83.6,11.9 C85.2,11.9 86.5,12.5 87.5,13.6 C88.1,14.3 89,14.3 89.5,13.8 C89.8,13.5 89.9,13.2 89.9,12.8 C89.9,12.5 89.8,12.2 89.6,11.9 C89.1,11.2 88.4,10.6 87.4,10 C86.4,9.4 85.1,9.1 83.6,9.1 C81,9.1 79,9.9 77.6,11.4 C76.2,12.9 75.5,15.3 75.5,18.4 C75.5,21.5 76.2,23.9 77.6,25.4 C79,27 81,27.8 83.6,27.8 C85.8,27.8 87.8,27.1 89.5,25.7 C89.9,25.3 90.1,25 90.1,24.6 C90.1,24.2 90,23.9 89.7,23.6 C89.1,23.4 88.5,23.3 87.8,23.7 Z" id="Shape" fill-rule="nonzero"></path>
                    <path d="M100.4,9.3 C97.8,9.3 95.8,10.1 94.3,11.7 C92.9,13.3 92.2,15.6 92.2,18.7 C92.2,21.8 92.9,24.2 94.4,25.7 C95.8,27.3 97.9,28.1 100.4,28.1 C103,28.1 105,27.3 106.5,25.7 C107.9,24.1 108.6,21.8 108.6,18.7 C108.6,15.6 107.9,13.3 106.5,11.7 C105,10.1 103,9.3 100.4,9.3 Z M100.4,12 C103.9,12 105.6,14.2 105.6,18.7 C105.6,23.2 103.9,25.4 100.4,25.4 C96.9,25.4 95.2,23.2 95.2,18.7 C95.2,14.1 96.9,12 100.4,12 Z" id="Shape" fill-rule="nonzero"></path>
                    <path d="M119.6,9.3 C118.4,9.3 117.3,9.6 116.4,10.1 C115.8,10.5 115.3,10.9 114.9,11.4 L114.9,11 C114.9,10.6 114.8,10.2 114.5,9.9 C113.9,9.4 113,9.4 112.5,9.9 C112.2,10.2 112.1,10.5 112.1,11 L112.1,26.4 C112.1,26.8 112.2,27.2 112.5,27.5 C113.1,28 114,28 114.5,27.5 C114.8,27.2 114.9,26.9 114.9,26.4 L114.9,17 C114.9,13.6 116.5,11.9 119.7,11.9 C121.3,11.9 122.5,12.3 123.1,13.1 C123.7,13.9 124,15.1 124,16.7 L124,26.4 C124,26.8 124.1,27.2 124.4,27.4 C124.7,27.7 125,27.8 125.4,27.8 C125.8,27.8 126.2,27.7 126.4,27.4 C126.7,27.1 126.8,26.8 126.8,26.3 L126.8,16.2 C126.8,11.6 124.4,9.3 119.6,9.3 Z" id="Shape" fill-rule="nonzero"></path>
                    <path d="M138.6,9.3 C137.4,9.3 136.3,9.6 135.4,10.1 C134.8,10.5 134.3,10.9 133.9,11.4 L133.9,11 C133.9,10.6 133.8,10.2 133.5,9.9 C132.9,9.4 132,9.4 131.5,9.9 C131.2,10.2 131.1,10.5 131.1,11 L131.1,26.4 C131.1,26.8 131.2,27.2 131.5,27.5 C132.1,28 133,28 133.5,27.5 C133.8,27.2 133.9,26.9 133.9,26.4 L133.9,17 C133.9,13.6 135.5,11.9 138.7,11.9 C140.3,11.9 141.5,12.3 142.1,13.1 C142.7,13.9 143,15.1 143,16.7 L143,26.4 C143,26.8 143.1,27.2 143.4,27.4 C143.7,27.7 144,27.8 144.4,27.8 C144.8,27.8 145.2,27.7 145.4,27.4 C145.7,27.1 145.8,26.8 145.8,26.3 L145.8,16.2 C145.8,11.6 143.4,9.3 138.6,9.3 Z" id="Shape" fill-rule="nonzero"></path>
                    <path d="M163.4,13.1 C163.1,12.4 162.6,11.7 162.1,11.2 C161.6,10.6 160.8,10.2 159.9,9.8 C159,9.4 157.9,9.2 156.7,9.2 C154.2,9.2 152.2,10 150.8,11.7 C149.4,13.3 148.7,15.6 148.7,18.6 C148.7,21.7 149.4,24.1 150.9,25.7 C152.4,27.3 154.5,28 157.1,28 C159.7,28 161.7,27.3 163.2,25.8 C163.5,25.5 163.7,25.1 163.7,24.7 C163.7,24.3 163.6,24 163.3,23.7 C162.8,23.2 162.2,23.1 161.5,23.6 C160.1,24.7 158.6,25.2 157.1,25.2 C155.4,25.2 154.1,24.7 153.1,23.6 C152.2,22.6 151.7,21.2 151.6,19.5 L162.4,19.5 C162.8,19.5 163.1,19.4 163.4,19.3 C163.7,19.1 163.9,18.9 164,18.5 C164.1,18.2 164.1,18 164.2,17.7 C164.2,17.5 164.2,17.2 164.2,16.8 C164.2,16.2 164.1,15.6 164,15 C164,14.5 163.8,13.8 163.4,13.1 Z M156.8,12 C159.8,12 161.3,13.6 161.4,17 L151.7,17 C151.9,15.5 152.3,14.3 153.2,13.4 C154,12.4 155.2,12 156.8,12 Z" id="Shape" fill-rule="nonzero"></path>
                    <path d="M178.7,23.7 C177.3,24.8 175.9,25.3 174.5,25.3 C171.1,25.3 169.4,23.1 169.4,18.6 C169.4,14.1 171.1,11.9 174.5,11.9 C176.1,11.9 177.4,12.5 178.4,13.6 C179,14.3 179.9,14.3 180.4,13.8 C180.7,13.5 180.8,13.2 180.8,12.8 C180.8,12.5 180.7,12.2 180.5,11.9 C180,11.2 179.3,10.6 178.3,10 C177.3,9.4 176,9.1 174.5,9.1 C171.9,9.1 169.9,9.9 168.5,11.4 C167.1,12.9 166.4,15.3 166.4,18.4 C166.4,21.5 167.1,23.9 168.5,25.4 C169.9,27 171.9,27.8 174.5,27.8 C176.7,27.8 178.7,27.1 180.4,25.7 C180.8,25.3 181,25 181,24.6 C181,24.2 180.9,23.9 180.6,23.6 C180.1,23.4 179.4,23.3 178.7,23.7 Z" id="Shape" fill-rule="nonzero"></path>
                    <path d="M190.1,25.1 C189.5,25.1 189.1,24.9 188.7,24.5 C188.3,24.1 188.2,23.5 188.2,22.8 L188.2,12.6 L190.4,12.6 C190.8,12.6 191.1,12.5 191.4,12.2 C191.7,11.9 191.8,11.6 191.8,11.2 C191.8,10.8 191.7,10.5 191.4,10.2 C191.1,9.9 190.8,9.8 190.4,9.8 L188.2,9.8 L188.2,6 C188.2,5.6 188.1,5.3 187.8,5 C187.2,4.4 186.3,4.4 185.7,5 C185.4,5.3 185.3,5.6 185.3,6 L185.3,9.7 L184,9.7 C183.6,9.7 183.3,9.8 183,10.1 C182.7,10.4 182.6,10.7 182.6,11.1 C182.6,11.5 182.7,11.8 183,12.1 C183.3,12.4 183.6,12.5 184,12.5 L185.2,12.5 L185.2,22.7 C185.2,24.2 185.6,25.4 186.5,26.3 C187.4,27.2 188.6,27.7 190.1,27.7 C190.5,27.7 190.8,27.6 191.1,27.3 C191.4,27 191.5,26.7 191.5,26.3 C191.5,25.9 191.4,25.6 191.1,25.3 C190.8,25.2 190.4,25.1 190.1,25.1 Z" id="Shape" fill-rule="nonzero"></path>
                </g>
                <g id="Group-3" transform="translate(0.000000, 6.000000)">
                    <g id="Group-4" fill-rule="nonzero">
                        <g id="freshconnect">
                            <path d="M17,34 C7.616,34 0,26.384 0,17 C0,7.616 7.616,0 17,0 L29.75,0 C32.096,0 34,1.904 34,4.25 L34,17 C34,26.384 26.384,34 17,34" id="Fill-1-Copy" fill="#00B3B3"></path>
                            <path d="M12.8165833,19.6652222 L16.4127917,13.436375 C16.6012083,13.4817083 16.7976528,13.5057917 17,13.5057917 C17.2021111,13.5057917 17.3985555,13.4817083 17.5869722,13.436375 L21.1831805,19.6652222 C20.9133055,19.9490278 20.7095417,20.295875 20.5959722,20.6816805 L13.4040278,20.6816805 C13.2904583,20.295875 13.0864583,19.9490278 12.8165833,19.6652222 M22.9969861,18.887 C22.7946389,18.887 22.5981945,18.9113195 22.4097778,18.9564167 L18.8135695,12.7275695 C19.2406945,12.2787222 19.5027778,11.6714445 19.5027778,11.0027778 C19.5027778,9.62058332 18.3821945,8.5 17,8.5 C15.6175695,8.5 14.4969861,9.62058332 14.4969861,11.0027778 C14.4969861,11.6714445 14.7590695,12.2787222 15.1861945,12.7275695 L11.5899861,18.9564167 C11.4015695,18.9113195 11.205125,18.887 11.0027778,18.887 C9.62058332,18.887 8.5,20.0075833 8.5,21.3900139 C8.5,22.7724445 9.62058332,23.8930278 11.0027778,23.8930278 C12.1391805,23.8930278 13.0985,23.1358195 13.4040278,22.0983472 L20.5959722,22.0983472 C20.9015,23.1358195 21.8605833,23.8930278 22.9969861,23.8930278 C24.3794167,23.8930278 25.5,22.7724445 25.5,21.3900139 C25.5,20.0075833 24.3794167,18.887 22.9969861,18.887" id="Fill-3-Copy" fill="#FFFFFF"></path>
                        </g>
                    </g>
                </g>
            </g>
        </g>
    </g>
</svg>