<?xml version="1.0" encoding="utf-8"?>
<!-- Generator: Adobe Illustrator 22.1.0, SVG Export Plug-In . SVG Version: 6.00 Build 0)  -->
<svg version="1.1" id="Layer_1" xmlns="http://www.w3.org/2000/svg" xmlns:xlink="http://www.w3.org/1999/xlink" x="0px" y="0px"
	 viewBox="0 0 248.4 40" style="enable-background:new 0 0 248.4 40;" xml:space="preserve">
<style type="text/css">
	.st0{fill:#FFFFFF;}
	.st1{fill:#EE5A24;}
</style>
<title>freshmarketer-dark-bg</title>
<g>
	<g>
		<path class="st0" d="M48.6,1c-5,0-6.8,3.5-6.8,6.8v2h-1c-0.8,0-1.4,0.6-1.4,1.4s0.6,1.4,1.4,1.4h1v13.8c0,0.8,0.6,1.5,1.5,1.5
			s1.5-0.6,1.5-1.5l0,0V12.5h3.2c0.8,0,1.4-0.6,1.4-1.4s-0.6-1.4-1.4-1.4h-3.2v-2c0-1.8,0.7-4,3.9-4c0.8,0,1.4-0.6,1.4-1.3
			c0,0,0,0,0,0C50,1.6,49.4,1,48.6,1C48.7,1,48.6,1,48.6,1z"/>
		<path class="st0" d="M60,9.3c-2-0.1-3.8,0.8-5,2.4v-0.8c0-0.8-0.6-1.5-1.5-1.5S52,10.1,52,10.9v15.4c0,0.8,0.6,1.5,1.5,1.5
			s1.5-0.6,1.5-1.5l0,0v-8.5c0-3.6,1.9-5.7,5-5.7c0.8,0,1.4-0.6,1.4-1.4S60.7,9.3,60,9.3z"/>
		<path class="st0" d="M77.7,16.9c0-1.7-0.5-3.4-1.4-4.8c-1.4-1.9-3.7-3-6.1-2.8c-5.1,0-8,3.4-8,9.3c0,6.1,2.9,9.4,8.4,9.4
			c2.2,0.1,4.4-0.7,6.1-2.2c0.3-0.2,0.5-0.6,0.5-1c0-0.7-0.6-1.3-1.3-1.3c-0.3,0-0.6,0.1-0.8,0.3c-1.2,1-2.8,1.6-4.4,1.6
			c-3.3,0-5.4-2.2-5.5-5.7H76C77.7,19.5,77.7,17.9,77.7,16.9z M70.3,11.9c3,0,4.5,1.7,4.6,5h-9.7C65.5,13.7,67.3,11.9,70.3,11.9
			L70.3,11.9z"/>
		<path class="st0" d="M87.5,17.1c-2.2-0.8-4-1.4-4-3c0-1.8,2-2,3.1-2c1.5-0.1,3,0.5,4,1.5c0.5,0.5,1.4,0.5,1.9,0
			c0.3-0.3,0.4-0.6,0.4-1c0-0.3-0.1-0.6-0.3-0.9c-1.5-1.7-3.7-2.7-5.9-2.5c-3.7,0-6,1.9-6,4.8c0,3.6,3.2,4.7,6,5.7
			c2.1,0.7,4,1.3,4,2.9c0,2.1-2.4,2.5-3.8,2.5c-1.7,0.1-3.4-0.6-4.6-1.8c-0.3-0.3-0.6-0.4-1-0.5c-0.7,0-1.3,0.6-1.3,1.3
			c0,0.3,0.1,0.6,0.3,0.9C82,27,84.4,28,86.9,28c4.2,0,6.7-2,6.7-5.2C93.4,19.1,90.3,18.1,87.5,17.1z"/>
		<path class="st0" d="M104.8,9.2c-1.8-0.1-3.6,0.7-4.8,2.1V1.5c0-0.8-0.6-1.5-1.5-1.5c-0.8,0-1.4,0.6-1.4,1.5v24.8
			c0,0.8,0.6,1.5,1.4,1.5c0.8,0,1.5-0.6,1.5-1.5l0,0V17c0-3.4,1.6-5.1,4.8-5.1s4.3,1.4,4.3,4.8v9.6c0,0.8,0.6,1.5,1.5,1.5
			c0.8,0,1.4-0.6,1.4-1.5l0,0V16.2C112,11.6,109.6,9.2,104.8,9.2z"/>
		<path class="st0" d="M135.2,9.2c-2.1-0.2-4.2,0.8-5.5,2.5c-1.1-1.6-3.3-2.5-6-2.5c-1.8-0.1-3.5,0.7-4.7,2.1v-0.4
			c0-0.8-0.6-1.5-1.4-1.5c-0.8,0-1.5,0.6-1.5,1.5v15.4c0,0.8,0.6,1.5,1.5,1.5c0.8,0,1.4-0.6,1.4-1.5l0,0V17c0-3.5,1.4-5.1,4.4-5.1
			s4.4,1.4,4.4,4.8v9.6c0,0.8,0.6,1.5,1.4,1.5s1.5-0.6,1.5-1.4c0,0,0,0,0,0V16.2c0-2.8,1.6-4.3,4.5-4.3c3.1,0,4.5,1.5,4.5,4.8v9.6
			c0,0.8,0.6,1.5,1.4,1.5s1.5-0.6,1.5-1.4c0,0,0,0,0,0V16.2C142.6,13,141.3,9.2,135.2,9.2z"/>
		<path class="st0" d="M153.2,9.2c-3.9,0-5.8,1.9-6.5,3.1c-0.1,0.2-0.2,0.5-0.2,0.8c0,0.7,0.6,1.3,1.3,1.3c0.5,0,0.9-0.2,1.2-0.6
			l0,0c1-1.3,2.6-2,4.2-1.8c2.6,0,4.2,1.5,4.2,3.9v0.8h-5.1c-4.2,0-6.9,2.1-6.9,5.6s2.5,5.6,6.8,5.6c2,0.1,3.9-0.7,5.2-2.2v0.6
			c0,0.8,0.6,1.4,1.4,1.4s1.4-0.6,1.4-1.4V15.9C160.3,11.8,157.6,9.2,153.2,9.2z M152.5,25.2c-1.9,0-4.1-0.5-4.1-3s2.5-3,3.9-3h5.1
			v1.4C157.5,23.8,154.9,25.3,152.5,25.2L152.5,25.2z"/>
		<path class="st0" d="M172.3,9.3c-2-0.1-3.8,0.8-5,2.4v-0.8c0-0.8-0.6-1.5-1.4-1.5c-0.8,0-1.5,0.6-1.5,1.4c0,0,0,0,0,0v15.4
			c0,0.8,0.6,1.5,1.4,1.5s1.5-0.6,1.5-1.4c0,0,0,0,0,0v-8.5c0-3.6,1.9-5.7,5-5.7c0.8,0,1.4-0.6,1.4-1.4S173.1,9.3,172.3,9.3z"/>
		<path class="st0" d="M183.3,16.9l6-4.8c0.4-0.3,0.6-0.7,0.6-1.2c0-0.8-0.6-1.4-1.4-1.4c0,0,0,0,0,0c-0.4,0-0.7,0.1-1,0.4l-8.6,7
			V1.5c0-0.8-0.7-1.4-1.5-1.4c-0.8,0-1.4,0.6-1.4,1.4v24.8c0,0.8,0.7,1.4,1.5,1.4c0.8,0,1.4-0.6,1.4-1.4v-6l2-1.6l6.6,8.4l0,0
			c0.3,0.4,0.8,0.7,1.2,0.7c0.8,0,1.4-0.6,1.4-1.4c0,0,0,0,0,0c0-0.3-0.1-0.7-0.3-0.9L183.3,16.9z"/>
		<path class="st0" d="M207.6,16.9c0-1.7-0.5-3.4-1.4-4.8c-1.4-1.9-3.7-3-6.1-2.8c-5.1,0-8,3.4-8,9.3c0,6.1,2.9,9.4,8.4,9.4
			c2.2,0.1,4.4-0.7,6.1-2.2c0.3-0.2,0.5-0.6,0.5-1c0-0.7-0.6-1.3-1.3-1.3c-0.3,0-0.6,0.1-0.8,0.3c-1.2,1-2.8,1.6-4.4,1.6
			c-3.3,0-5.4-2.2-5.5-5.7h10.8C207.6,19.5,207.6,17.9,207.6,16.9z M200.1,11.9c3,0,4.5,1.7,4.6,5H195
			C195.3,13.7,197.1,11.9,200.1,11.9L200.1,11.9z"/>
		<path class="st0" d="M216.9,12.5c0.8,0,1.4-0.6,1.4-1.4s-0.6-1.4-1.4-1.4h-2.2V6c0-0.8-0.6-1.4-1.4-1.4c-0.8,0-1.4,0.7-1.4,1.4
			v3.8h-1.2c-0.8,0-1.4,0.6-1.4,1.4s0.6,1.4,1.4,1.4h1.2v10.2c0,3,1.9,5,4.9,5c0.8,0,1.4-0.6,1.4-1.4s-0.6-1.4-1.4-1.4
			c-1.2,0-2-0.9-2-2.3V12.5H216.9L216.9,12.5z"/>
		<path class="st0" d="M235.8,16.9c0-1.7-0.5-3.4-1.4-4.8c-1.4-1.9-3.7-3-6.1-2.8c-5.1,0-8,3.4-8,9.3c0,6.1,2.9,9.4,8.4,9.4
			c2.2,0.1,4.4-0.7,6.1-2.2c0.3-0.2,0.5-0.6,0.5-1c0-0.7-0.6-1.4-1.3-1.4c0,0,0,0,0,0c-0.3,0-0.6,0.1-0.8,0.3
			c-1.2,1-2.8,1.6-4.4,1.6c-3.3,0-5.4-2.2-5.5-5.7h10.8C235.8,19.5,235.8,17.9,235.8,16.9z M228.4,11.9c3,0,4.5,1.7,4.6,5h-9.7
			C223.6,13.7,225.4,11.9,228.4,11.9L228.4,11.9z"/>
		<path class="st0" d="M247,9.3c-2-0.1-3.8,0.8-5,2.4v-0.8c0-0.8-0.6-1.5-1.4-1.5c-0.8,0-1.5,0.6-1.5,1.4c0,0,0,0,0,0v15.4
			c0,0.8,0.6,1.5,1.4,1.5s1.5-0.6,1.5-1.4c0,0,0,0,0,0v-8.5c0-3.6,1.9-5.7,5-5.7c0.8,0,1.4-0.6,1.4-1.4S247.8,9.3,247,9.3z"/>
	</g>
	<g>
		<path class="st1" d="M29.8,5.9H17c0,0-0.1,0-0.1,0C7.5,6-0.1,13.6,0,23c0,9.4,7.6,17,17,17c0,0,0.1,0,0.1,0c9.4,0,17-7.6,17-17
			V10.2C34.1,7.8,32.2,5.9,29.8,5.9z"/>
		<ellipse class="st0" cx="24.3" cy="22.1" rx="1" ry="2.6"/>
		<path class="st0" d="M21.6,22.1c-0.1-2.2,0.3-4.5,1-6.6c0.1-0.1,0-0.3-0.1-0.3c-0.1,0-0.2,0-0.2,0l-6.5,3.1
			c-0.3,0.2-0.7,0.3-1.1,0.3l-2,0.2c-1.8,0.2-3.1,1.8-2.9,3.6c0.2,1.5,1.4,2.7,2.9,2.9h0.1l0.6,3.7c0.1,0.7,0.8,1.2,1.5,1
			c0.7-0.1,1.2-0.8,1-1.5l-0.5-2.8l0.3,0.1l6.4,3.1c0.1,0.1,0.3,0,0.3-0.1c0-0.1,0-0.2,0-0.2C21.8,26.6,21.5,24.4,21.6,22.1z"/>
	</g>
</g>
</svg>
