<svg xmlns="http://www.w3.org/2000/svg" xmlns:xlink="http://www.w3.org/1999/xlink" width="189" height="40" viewBox="0 0 189 40">
    <defs>
        <path id="a" d="M.066 0h14.91v27.753H.065V0z"/>
    </defs>
    <g fill="none" fill-rule="evenodd">
        <path fill="#4D4D4D" d="M48.62 1.023c-5.007 0-6.791 3.489-6.791 6.753v1.999h-1.052c-.77 0-1.373.603-1.373 1.374 0 .77.603 1.373 1.373 1.373h1.052v13.782c0 .812.636 1.449 1.449 1.449.812 0 1.449-.637 1.449-1.449V12.522h3.21a1.36 1.36 0 0 0 1.375-1.373 1.36 1.36 0 0 0-1.374-1.374h-3.211V7.776c0-1.827.675-4.006 3.893-4.006.77 0 1.373-.603 1.373-1.374 0-.77-.603-1.373-1.373-1.373M59.947 9.32c-2.159 0-4.005.886-5.03 2.36v-.758c0-.814-.636-1.45-1.449-1.45-.812 0-1.449.636-1.449 1.45v15.381c0 .813.637 1.45 1.45 1.45.812 0 1.448-.637 1.448-1.45v-8.486c0-3.553 1.881-5.674 5.03-5.674a1.413 1.413 0 0 0 0-2.823M70.253 11.916c2.99 0 4.54 1.689 4.61 5.02h-9.696c.3-3.24 2.099-5.02 5.086-5.02m7.473 4.954c0-.837-.135-2.98-1.387-4.795-1.294-1.878-3.342-2.83-6.086-2.83-5.111 0-8.042 3.4-8.042 9.33 0 6.128 2.912 9.368 8.42 9.368 3.7 0 5.713-1.826 6.079-2.191.246-.246.486-.53.486-1.04 0-.736-.6-1.335-1.336-1.335-.382 0-.586.116-.824.275-1.067.8-2.286 1.582-4.404 1.582-3.31 0-5.393-2.178-5.481-5.702h10.823c1.752 0 1.752-1.602 1.752-2.662M87.525 17.108c-2.169-.747-4.04-1.392-4.04-3.004 0-1.772 1.963-2.037 3.135-2.037 2.093 0 3.142.733 3.962 1.522a1.337 1.337 0 0 0 2.299-.925c0-.395-.168-.668-.314-.862-1.228-1.625-3.34-2.52-5.947-2.52-3.723 0-6.035 1.848-6.035 4.822 0 3.636 3.19 4.715 6.006 5.667 2.125.719 3.96 1.34 3.96 2.896 0 2.134-2.368 2.453-3.78 2.453-1.922 0-3.442-.585-4.645-1.787-.37-.371-.749-.45-1-.45-.737 0-1.336.6-1.336 1.337 0 .31.084.542.316.867 1.106 1.402 3.595 2.818 6.665 2.818 4.181 0 6.677-1.96 6.677-5.238 0-3.518-3.146-4.602-5.922-5.56"/>
        <g transform="translate(97)">
            <mask id="b" fill="#fff">
                <use xlink:href="#a"/>
            </mask>
            <path fill="#4D4D4D" d="M7.767 9.245c-2 0-3.794.795-4.802 2.078V1.45C2.965.637 2.328 0 1.516 0 .703 0 .066.637.066 1.45v24.854c0 .813.637 1.449 1.45 1.449.812 0 1.45-.636 1.45-1.45v-9.357c0-3.363 1.614-5.068 4.801-5.068 3.061 0 4.31 1.39 4.31 4.803v9.623c0 .813.636 1.449 1.45 1.449.812 0 1.448-.636 1.448-1.45V16.189c0-4.607-2.425-6.943-7.208-6.943" mask="url(#b)"/>
        </g>
        <path fill="#4D4D4D" d="M122.57 17.108c-2.168-.747-4.04-1.392-4.04-3.004 0-1.772 1.963-2.037 3.135-2.037 2.092 0 3.142.733 3.961 1.522a1.337 1.337 0 0 0 2.299-.925c0-.394-.166-.668-.313-.862-1.227-1.625-3.34-2.52-5.947-2.52-3.723 0-6.035 1.848-6.035 4.822 0 3.636 3.19 4.715 6.005 5.667 2.124.719 3.96 1.34 3.96 2.896 0 2.134-2.367 2.453-3.78 2.453-1.921 0-3.441-.585-4.644-1.787-.37-.371-.749-.45-1-.45-.737 0-1.336.6-1.336 1.337 0 .309.084.542.317.867 1.105 1.402 3.594 2.818 6.663 2.818 4.183 0 6.679-1.96 6.679-5.238 0-3.518-3.147-4.602-5.924-5.56M137.956 25.271c-1.862 0-4.082-.518-4.082-2.984 0-2.596 2.462-2.983 3.93-2.983h5.106v1.354c0 3.17-2.568 4.613-4.954 4.613m.72-16.027c-3.928 0-5.752 1.944-6.493 3.108-.11.184-.223.42-.223.766 0 .737.599 1.336 1.335 1.336.438 0 .763-.17 1.16-.608l.003-.002c1.18-1.333 2.363-1.853 4.218-1.853 2.65 0 4.234 1.47 4.234 3.931v.786h-5.106c-4.235 0-6.867 2.138-6.867 5.58 0 3.54 2.539 5.654 6.79 5.654 2.193 0 4.1-.817 5.183-2.175v.574c0 .78.633 1.412 1.41 1.412.779 0 1.412-.633 1.412-1.412V15.922c0-4.119-2.704-6.678-7.056-6.678M153.982 25.006c-.632 0-1.28-.228-1.28-1.923V1.45A1.45 1.45 0 0 0 151.255 0c-.772 0-1.45.677-1.45 1.45v21.633c0 3.011 1.484 4.67 4.178 4.67.757 0 1.374-.616 1.374-1.373 0-.758-.617-1.374-1.374-1.374M165.006 11.916c2.991 0 4.541 1.689 4.61 5.02h-9.696c.301-3.24 2.1-5.02 5.086-5.02m7.473 4.954c0-.837-.135-2.98-1.386-4.795-1.295-1.878-3.343-2.83-6.087-2.83-5.11 0-8.04 3.4-8.04 9.33 0 6.128 2.911 9.368 8.42 9.368 3.7 0 5.711-1.826 6.077-2.191.246-.246.486-.53.486-1.04 0-.736-.599-1.335-1.335-1.335-.35 0-.542.086-.824.275-1.068.8-2.287 1.582-4.405 1.582-3.309 0-5.392-2.178-5.48-5.702h10.822c1.752 0 1.752-1.602 1.752-2.662M182.28 17.108c-2.17-.747-4.041-1.392-4.041-3.004 0-1.772 1.964-2.037 3.135-2.037 2.093 0 3.143.733 3.962 1.522a1.337 1.337 0 0 0 2.299-.925c0-.394-.167-.668-.313-.862-1.228-1.625-3.341-2.52-5.948-2.52-3.722 0-6.034 1.848-6.034 4.822 0 3.636 3.19 4.715 6.004 5.667 2.125.719 3.96 1.34 3.96 2.896 0 2.134-2.367 2.453-3.78 2.453-1.921 0-3.441-.585-4.643-1.787-.371-.371-.75-.45-1.001-.45-.736 0-1.335.6-1.335 1.337 0 .309.083.542.316.867 1.105 1.402 3.594 2.818 6.664 2.818 4.182 0 6.678-1.96 6.678-5.238 0-3.518-3.147-4.602-5.923-5.56"/>
        <path fill="#FFA800" d="M17.05 40C7.632 40 0 32.367 0 22.951S7.633 5.902 17.05 5.902h12.786a4.262 4.262 0 0 1 4.262 4.262v12.787C34.098 32.367 26.465 40 17.05 40"/>
        <path fill="#FFF" d="M20.569 17.783a3.357 3.357 0 1 1-6.714 0 3.357 3.357 0 0 1 6.714 0M9.725 22.32l5.859 5.86v3.295h2.93V28.18l5.859-5.859z"/>
    </g>
</svg>
