<?xml version="1.0" encoding="UTF-8"?>
<svg width="203px" height="41px" viewBox="0 0 203 41" version="1.1" xmlns="http://www.w3.org/2000/svg" xmlns:xlink="http://www.w3.org/1999/xlink">
    <!-- Generator: Sketch 52.5 (67469) - http://www.bohemiancoding.com/sketch -->
    <title>Group 3 Copy</title>
    <desc>Created with Sketch.</desc>
    <defs>
        <polygon id="path-1" points="0 0.000116473899 15.3913945 0.000116473899 15.3913945 15.3991307 0 15.3991307"></polygon>
    </defs>
    <g id="Page-1" stroke="none" stroke-width="1" fill="none" fill-rule="evenodd">
        <g id="Group-3-Copy" transform="translate(-1.000000, 1.000000)">
            <path d="M43.0340984,12.0324324 L41.7409836,12.0324324 C41.0944262,12.0324324 40.6,11.5405405 40.6,10.8972973 C40.6,10.2540541 41.0944262,9.76216216 41.7409836,9.76216216 L43.0340984,9.76216216 L43.0340984,7.52972973 C43.0340984,4.12432432 44.9737705,1.02162162 49.6137705,1.02162162 C50.2603279,1.02162162 50.7547541,1.51351351 50.7547541,2.15675676 C50.7547541,2.8 50.2603279,3.29189189 49.6137705,3.29189189 C46.6472131,3.29189189 45.4681967,5.07027027 45.4681967,7.52972973 L45.4681967,9.76216216 L48.9291803,9.76216216 C49.5757377,9.76216216 50.0701639,10.2540541 50.0701639,10.8972973 C50.0701639,11.5405405 49.5757377,12.0324324 48.9291803,12.0324324 L45.4681967,12.0324324 L45.4681967,26.0324324 C45.4681967,26.7135135 44.9357377,27.2432432 44.2511475,27.2432432 C43.5665574,27.2432432 43.0340984,26.7135135 43.0340984,26.0324324 L43.0340984,12.0324324 Z M55.6990164,10.6702703 L55.6990164,12.3351351 C56.4596721,10.5945946 58.3613115,9.30810811 60.9855738,9.30810811 C61.6321311,9.30810811 62.1645902,9.83783784 62.1645902,10.4810811 C62.1645902,11.1243243 61.6321311,11.6540541 60.9855738,11.6540541 C57.4865574,11.6540541 55.6990164,14.0756757 55.6990164,17.5567568 L55.6990164,26.0324324 C55.6990164,26.7135135 55.1665574,27.2432432 54.4819672,27.2432432 C53.797377,27.2432432 53.264918,26.7135135 53.264918,26.0324324 L53.264918,10.6702703 C53.264918,9.98918919 53.797377,9.45945946 54.4819672,9.45945946 C55.1665574,9.45945946 55.6990164,9.98918919 55.6990164,10.6702703 Z M63.4957377,18.3135135 C63.4957377,12.4864865 66.3862295,9.23243243 71.3304918,9.23243243 C77.4157377,9.23243243 78.5947541,14.0378378 78.5947541,16.6108108 C78.5947541,17.7081081 78.5947541,19.0324324 77.0734426,19.0324324 L65.9678689,19.0324324 C65.9678689,22.7783784 68.1357377,25.2 71.7108197,25.2 C73.9167213,25.2 75.2098361,24.3675676 76.2747541,23.572973 C76.5029508,23.4216216 76.655082,23.3459459 76.9593443,23.3459459 C77.5678689,23.3459459 78.0622951,23.8378378 78.0622951,24.4432432 C78.0622951,24.8594595 77.8721311,25.0864865 77.6439344,25.3135135 C77.0734426,25.8810811 75.0957377,27.4324324 71.7108197,27.4324324 C66.652459,27.4324324 63.4957377,24.6702703 63.4957377,18.3135135 Z M76.1986885,16.9135135 C76.1986885,14.1891892 75.2478689,11.427027 71.3304918,11.427027 C68.0216393,11.427027 66.1960656,13.5459459 65.9678689,16.9135135 L76.1986885,16.9135135 Z M87.7606557,11.5783784 C86.0491803,11.5783784 84.3757377,12.1081081 84.3757377,13.8486486 C84.3757377,17.8216216 94.3783607,16.3459459 94.3783607,22.4 C94.3783607,25.8432432 91.5259016,27.3945946 87.9127869,27.3945946 C84.7940984,27.3945946 82.3980328,25.9189189 81.4091803,24.6702703 C81.2190164,24.4054054 81.1429508,24.2162162 81.1429508,23.9513514 C81.1429508,23.3459459 81.637377,22.8540541 82.2459016,22.8540541 C82.4740984,22.8540541 82.7783607,22.9297297 83.082623,23.2324324 C84.2616393,24.4054054 85.7829508,25.0864865 87.9127869,25.0864865 C90.0806557,25.0864865 91.9442623,24.3675676 91.9442623,22.4 C91.9442623,18.5027027 81.9416393,20.0540541 81.9416393,13.8486486 C81.9416393,10.7081081 84.5278689,9.27027027 87.7606557,9.27027027 C90.3468852,9.27027027 92.362623,10.1405405 93.5416393,11.6918919 C93.6557377,11.8432432 93.8078689,12.0702703 93.8078689,12.4108108 C93.8078689,13.0162162 93.3134426,13.5081081 92.704918,13.5081081 C92.5147541,13.5081081 92.2104918,13.4702703 91.9062295,13.1675676 C90.8793443,12.1837838 89.7383607,11.5783784 87.7606557,11.5783784 Z M105.978361,9.23243243 C111.83541,9.23243243 112.976393,12.7135135 112.976393,15.9297297 L112.976393,26.0324324 C112.976393,26.7135135 112.443934,27.2432432 111.759344,27.2432432 C111.074754,27.2432432 110.542295,26.7135135 110.542295,26.0324324 L110.542295,16.4216216 C110.542295,13.4324324 109.667541,11.3891892 105.978361,11.3891892 C102.213115,11.3891892 100.92,13.6594595 100.92,16.6864865 L100.92,26.0324324 C100.92,26.7135135 100.387541,27.2432432 99.7029508,27.2432432 C99.0183607,27.2432432 98.4859016,26.7135135 98.4859016,26.0324324 L98.4859016,1.21081081 C98.4859016,0.52972973 99.0183607,0 99.7029508,0 C100.387541,0 100.92,0.52972973 100.92,1.21081081 L100.92,11.8810811 C101.642623,10.4432432 103.50623,9.23243243 105.978361,9.23243243 Z M122.940984,11.5783784 C121.229508,11.5783784 119.556066,12.1081081 119.556066,13.8486486 C119.556066,17.8216216 129.558689,16.3459459 129.558689,22.4 C129.558689,25.8432432 126.70623,27.3945946 123.093115,27.3945946 C119.974426,27.3945946 117.578361,25.9189189 116.589508,24.6702703 C116.399344,24.4054054 116.323279,24.2162162 116.323279,23.9513514 C116.323279,23.3459459 116.817705,22.8540541 117.42623,22.8540541 C117.654426,22.8540541 117.958689,22.9297297 118.262951,23.2324324 C119.441967,24.4054054 120.963279,25.0864865 123.093115,25.0864865 C125.260984,25.0864865 127.12459,24.3675676 127.12459,22.4 C127.12459,18.5027027 117.121967,20.0540541 117.121967,13.8486486 C117.121967,10.7081081 119.708197,9.27027027 122.940984,9.27027027 C125.527213,9.27027027 127.542951,10.1405405 128.721967,11.6918919 C128.836066,11.8432432 128.988197,12.0702703 128.988197,12.4108108 C128.988197,13.0162162 128.49377,13.5081081 127.885246,13.5081081 C127.695082,13.5081081 127.39082,13.4702703 127.086557,13.1675676 C126.059672,12.1837838 124.918689,11.5783784 122.940984,11.5783784 Z M134.617049,9.76216216 L134.617049,5.78918919 C134.617049,5.14594595 135.187541,4.57837838 135.834098,4.57837838 C136.518689,4.57837838 137.051148,5.14594595 137.051148,5.78918919 L137.051148,9.76216216 L139.523279,9.76216216 C140.169836,9.76216216 140.664262,10.2540541 140.664262,10.8972973 C140.664262,11.5405405 140.169836,12.0324324 139.523279,12.0324324 L137.051148,12.0324324 L137.051148,22.4756757 C137.051148,24.1027027 137.963934,24.972973 139.257049,24.972973 C139.903607,24.972973 140.436066,25.4648649 140.436066,26.1081081 C140.436066,26.7513514 139.903607,27.2432432 139.257049,27.2432432 C136.252459,27.2432432 134.617049,25.2378378 134.617049,22.4756757 L134.617049,12.0324324 L133.13377,12.0324324 C132.487213,12.0324324 131.992787,11.5405405 131.992787,10.8972973 C131.992787,10.2540541 132.487213,9.76216216 133.13377,9.76216216 L134.617049,9.76216216 Z M150.628852,11.5027027 C148.613115,11.5027027 147.396066,12.1081081 146.217049,13.4324324 C145.836721,13.8486486 145.570492,13.9621622 145.228197,13.9621622 C144.619672,13.9621622 144.125246,13.4702703 144.125246,12.8648649 C144.125246,12.6 144.201311,12.4108108 144.31541,12.2216216 C145.380328,10.5567568 147.434098,9.23243243 150.628852,9.23243243 C155.040656,9.23243243 157.474754,11.8054054 157.474754,15.6648649 L157.474754,26.0702703 C157.474754,26.7135135 156.942295,27.2432432 156.295738,27.2432432 C155.64918,27.2432432 155.116721,26.7135135 155.116721,26.0702703 L155.116721,24.7081081 C154.165902,26.4864865 151.96,27.4324324 149.678033,27.4324324 C145.646557,27.4324324 143.098361,25.5027027 143.098361,22.0216216 C143.098361,18.6918919 145.646557,16.6864865 149.754098,16.6864865 L155.116721,16.6864865 L155.116721,15.6648649 C155.116721,13.0918919 153.405246,11.5027027 150.628852,11.5027027 Z M149.90623,25.2378378 C152.568525,25.2378378 155.116721,23.6108108 155.116721,20.3945946 L155.116721,18.8054054 L149.754098,18.8054054 C147.281967,18.8054054 145.570492,19.827027 145.570492,22.0216216 C145.570492,23.9891892 146.939672,25.2378378 149.90623,25.2378378 Z M162.989508,9.76216216 L162.989508,5.78918919 C162.989508,5.14594595 163.56,4.57837838 164.206557,4.57837838 C164.891148,4.57837838 165.423607,5.14594595 165.423607,5.78918919 L165.423607,9.76216216 L167.895738,9.76216216 C168.542295,9.76216216 169.036721,10.2540541 169.036721,10.8972973 C169.036721,11.5405405 168.542295,12.0324324 167.895738,12.0324324 L165.423607,12.0324324 L165.423607,22.4756757 C165.423607,24.1027027 166.336393,24.972973 167.629508,24.972973 C168.276066,24.972973 168.808525,25.4648649 168.808525,26.1081081 C168.808525,26.7513514 168.276066,27.2432432 167.629508,27.2432432 C164.624918,27.2432432 162.989508,25.2378378 162.989508,22.4756757 L162.989508,12.0324324 L161.50623,12.0324324 C160.859672,12.0324324 160.365246,11.5405405 160.365246,10.8972973 C160.365246,10.2540541 160.859672,9.76216216 161.50623,9.76216216 L162.989508,9.76216216 Z M173.486557,9.45945946 C174.133115,9.45945946 174.703607,9.98918919 174.703607,10.6702703 L174.703607,20.5459459 C174.703607,23.0054054 175.502295,25.1243243 179.343607,25.1243243 C183.184918,25.1243243 183.983607,23.0054054 183.983607,20.5459459 L183.983607,10.6702703 C183.983607,9.98918919 184.554098,9.45945946 185.238689,9.45945946 C185.885246,9.45945946 186.417705,9.98918919 186.417705,10.6702703 L186.417705,20.5459459 C186.417705,24.1405405 185.238689,27.4324324 179.343607,27.4324324 C173.486557,27.4324324 172.269508,24.1405405 172.269508,20.5459459 L172.269508,10.6702703 C172.269508,9.98918919 172.801967,9.45945946 173.486557,9.45945946 Z M196.382295,11.5783784 C194.67082,11.5783784 192.997377,12.1081081 192.997377,13.8486486 C192.997377,17.8216216 203,16.3459459 203,22.4 C203,25.8432432 200.147541,27.3945946 196.534426,27.3945946 C193.415738,27.3945946 191.019672,25.9189189 190.03082,24.6702703 C189.840656,24.4054054 189.76459,24.2162162 189.76459,23.9513514 C189.76459,23.3459459 190.259016,22.8540541 190.867541,22.8540541 C191.095738,22.8540541 191.4,22.9297297 191.704262,23.2324324 C192.883279,24.4054054 194.40459,25.0864865 196.534426,25.0864865 C198.702295,25.0864865 200.565902,24.3675676 200.565902,22.4 C200.565902,18.5027027 190.563279,20.0540541 190.563279,13.8486486 C190.563279,10.7081081 193.149508,9.27027027 196.382295,9.27027027 C198.968525,9.27027027 200.984262,10.1405405 202.163279,11.6918919 C202.277377,11.8432432 202.429508,12.0702703 202.429508,12.4108108 C202.429508,13.0162162 201.935082,13.5081081 201.326557,13.5081081 C201.136393,13.5081081 200.832131,13.4702703 200.527869,13.1675676 C199.500984,12.1837838 198.36,11.5783784 196.382295,11.5783784 Z" id="freshstatus-copy-6" stroke="#4D4D4D" stroke-width="0.5" fill="#4D4D4D"></path>
            <path d="M18.1594593,39.5297297 C8.72622694,39.5297297 1.07027027,32.097773 1.07027027,22.9405405 C1.07027027,13.7833081 8.72622694,6.35135135 18.1594593,6.35135135 L30.976351,6.35135135 C33.3346591,6.35135135 35.2486483,8.20934054 35.2486483,10.4986486 L35.2486483,22.9405405 C35.2486483,26.6147703 34.0161009,30.0112446 31.930746,32.7613341 C28.8187995,36.865255 23.8077202,39.5297297 18.1594593,39.5297297 Z" id="Shape" fill="#7E7EFC" fill-rule="nonzero"></path>
            <g id="Group-2" transform="translate(0.000000, 6.351351)">
                <g id="Group" transform="translate(17.882197, 17.996372) rotate(-140.000000) translate(-17.882197, -17.996372) translate(6.866994, 4.778129)">
                    <ellipse id="Oval" fill="#FFFFFF" cx="9.435063" cy="23.4605331" rx="2.716081" ry="2.61969023"></ellipse>
                    <g id="Group-3" transform="translate(11.149909, 11.599747) rotate(143.000000) translate(-11.149909, -11.599747) translate(3.439267, 3.889105)">
                        <mask id="mask-2" fill="white">
                            <use xlink:href="#path-1"></use>
                        </mask>
                        <g id="Clip-2"></g>
                        <path d="M14.0783665,8.50464458 C12.0552266,8.50464458 10.3003142,7.79135842 8.8619863,6.38481962 C7.4229438,4.97781492 6.69377494,3.26052375 6.69448957,1.28070041 C6.69472779,0.573237942 7.2814455,-4.65895597e-05 8.00465904,-4.65895597e-05 L8.00513547,-4.65895597e-05 C8.72882544,0.000186358239 9.31506673,0.574169734 9.31482852,1.2816322 C9.31411388,2.57472543 9.77219677,3.65141015 10.7148041,4.57295164 C11.6569351,5.49426018 12.7572392,5.9422188 14.0783665,5.9422188 L14.0812251,5.9422188 C14.8046768,5.9422188 15.3911563,6.51550333 15.3913945,7.2229658 C15.3918709,7.93042826 14.8053915,8.50441164 14.0819397,8.50464458 L14.0783665,8.50464458 Z M12.4192155,15.3992006 C12.3996821,15.3992006 12.3799104,15.3987347 12.3601388,15.3978029 C8.88723684,15.2475516 5.96674998,14.0373877 3.6794323,11.800623 C1.39235283,9.56455707 0.15483821,6.70838411 0.00119106316,3.31200521 C-0.0307294294,2.60500864 0.529308466,2.00656575 1.2522838,1.97535074 C1.97907054,1.95252186 2.58722739,2.49179601 2.61914788,3.19879258 C2.74444772,5.97366675 3.69753646,8.19482401 5.53248836,9.98875501 C7.36720204,11.7831519 9.63855948,12.715176 12.4759101,12.8379395 C13.1988855,12.8691545 13.7589234,13.4675974 13.7270029,14.174594 C13.6960352,14.8622559 13.1159875,15.3992006 12.4192155,15.3992006 Z" id="Fill-1" fill="#FFFFFF" mask="url(#mask-2)"></path>
                    </g>
                </g>
            </g>
        </g>
    </g>
</svg>