<svg xmlns="http://www.w3.org/2000/svg" width="189" height="40" viewBox="0 0 189 40">
    <g fill="none" fill-rule="nonzero">
        <g fill="#FFF">
            <path d="M48.6 1c-5 0-6.8 3.5-6.8 6.8v2h-1.1c-.8 0-1.4.6-1.4 1.4 0 .8.6 1.4 1.4 1.4h1.1v13.8c0 .8.6 1.4 1.4 1.4.8 0 1.4-.6 1.4-1.4V12.5h3.2c.8 0 1.4-.6 1.4-1.4 0-.8-.6-1.4-1.4-1.4h-3.2v-2c0-1.8.7-4 3.9-4 .8 0 1.4-.6 1.4-1.4 0-.8-.5-1.3-1.3-1.3zM59.9 9.3c-2.2 0-4 .9-5 2.4v-.8c0-.8-.6-1.4-1.4-1.4-.8 0-1.4.6-1.4 1.4v15.4c0 .8.6 1.4 1.4 1.4.8 0 1.4-.6 1.4-1.4v-8.5c0-3.6 1.9-5.7 5-5.7.8 0 1.4-.6 1.4-1.4 0-.8-.6-1.4-1.4-1.4zM77.7 16.9c0-.8-.1-3-1.4-4.8-1.3-1.9-3.3-2.9-6-2.9-5.1 0-8 3.4-8 9.3 0 6.1 2.9 9.4 8.4 9.4 3.7 0 5.7-1.8 6.1-2.2.2-.2.5-.5.5-1 0-.7-.6-1.3-1.3-1.3-.4 0-.6.1-.8.3-1.1.8-2.3 1.6-4.4 1.6-3.3 0-5.4-2.2-5.5-5.7H76c1.7-.1 1.7-1.7 1.7-2.7zm-7.4-5c3 0 4.5 1.7 4.6 5h-9.7c.3-3.2 2.1-5 5.1-5zM87.5 17.1c-2.2-.7-4-1.4-4-3 0-1.8 2-2 3.1-2 2.1 0 3.1.7 4 1.5.3.3.6.4 1 .4.7 0 1.3-.6 1.3-1.3 0-.4-.2-.7-.3-.9-1.2-1.6-3.3-2.5-5.9-2.5-3.7 0-6 1.8-6 4.8 0 3.6 3.2 4.7 6 5.7 2.1.7 4 1.3 4 2.9 0 2.1-2.4 2.5-3.8 2.5-1.9 0-3.4-.6-4.6-1.8-.4-.4-.7-.4-1-.4-.7 0-1.3.6-1.3 1.3 0 .3.1.5.3.9 1.1 1.4 3.6 2.8 6.7 2.8 4.2 0 6.7-2 6.7-5.2-.3-3.7-3.4-4.7-6.2-5.7zM104.8 9.2c-2 0-3.8.8-4.8 2.1V1.4c0-.8-.6-1.4-1.4-1.4-.8 0-1.4.6-1.4 1.4v24.9c0 .8.6 1.4 1.4 1.4.8 0 1.4-.6 1.4-1.4v-9.4c0-3.4 1.6-5.1 4.8-5.1 3.1 0 4.3 1.4 4.3 4.8v9.6c0 .8.6 1.4 1.4 1.4.8 0 1.4-.6 1.4-1.4v-10c.1-4.6-2.3-7-7.1-7zM122.6 17.1c-2.2-.7-4-1.4-4-3 0-1.8 2-2 3.1-2 2.1 0 3.1.7 4 1.5.3.3.6.4 1 .4.7 0 1.3-.6 1.3-1.3 0-.4-.2-.7-.3-.9-1.2-1.6-3.3-2.5-5.9-2.5-3.7 0-6 1.8-6 4.8 0 3.6 3.2 4.7 6 5.7 2.1.7 4 1.3 4 2.9 0 2.1-2.4 2.5-3.8 2.5-1.9 0-3.4-.6-4.6-1.8-.4-.4-.7-.4-1-.4-.7 0-1.3.6-1.3 1.3 0 .3.1.5.3.9 1.1 1.4 3.6 2.8 6.7 2.8 4.2 0 6.7-2 6.7-5.2-.3-3.7-3.5-4.7-6.2-5.7zM138.7 9.2c-3.9 0-5.8 1.9-6.5 3.1-.1.2-.2.4-.2.8 0 .7.6 1.3 1.3 1.3.4 0 .8-.2 1.2-.6 1.2-1.3 2.4-1.9 4.2-1.9 2.7 0 4.2 1.5 4.2 3.9v.8h-5.1c-4.2 0-6.9 2.1-6.9 5.6 0 3.5 2.5 5.7 6.8 5.7 2.2 0 4.1-.8 5.2-2.2v.6c0 .8.6 1.4 1.4 1.4.8 0 1.4-.6 1.4-1.4V15.9c0-4.1-2.7-6.7-7-6.7zm-.7 16.1c-1.9 0-4.1-.5-4.1-3 0-2.6 2.5-3 3.9-3h5.1v1.4c0 3.1-2.6 4.6-4.9 4.6zM154 25c-.6 0-1.3-.2-1.3-1.9V1.4c0-.8-.7-1.4-1.4-1.4-.8 0-1.4.7-1.4 1.4V23c0 3 1.5 4.7 4.2 4.7.8 0 1.4-.6 1.4-1.4 0-.8-.8-1.3-1.5-1.3zM172.5 16.9c0-.8-.1-3-1.4-4.8-1.3-1.9-3.3-2.8-6.1-2.8-5.1 0-8 3.4-8 9.3 0 6.1 2.9 9.4 8.4 9.4 3.7 0 5.7-1.8 6.1-2.2.2-.2.5-.5.5-1 0-.7-.6-1.3-1.3-1.3-.4 0-.5.1-.8.3-1.1.8-2.3 1.6-4.4 1.6-3.3 0-5.4-2.2-5.5-5.7h10.8c1.7-.2 1.7-1.8 1.7-2.8zm-7.5-5c3 0 4.5 1.7 4.6 5h-9.7c.3-3.2 2.1-5 5.1-5zM182.3 17.1c-2.2-.7-4-1.4-4-3 0-1.8 2-2 3.1-2 2.1 0 3.1.7 4 1.5.3.3.6.4 1 .4.7 0 1.3-.6 1.3-1.3 0-.4-.2-.7-.3-.9-1.2-1.6-3.3-2.5-5.9-2.5-3.7 0-6 1.8-6 4.8 0 3.6 3.2 4.7 6 5.7 2.1.7 4 1.3 4 2.9 0 2.1-2.4 2.5-3.8 2.5-1.9 0-3.4-.6-4.6-1.8-.4-.4-.7-.4-1-.4-.7 0-1.3.6-1.3 1.3 0 .3.1.5.3.9 1.1 1.4 3.6 2.8 6.7 2.8 4.2 0 6.7-2 6.7-5.2-.3-3.7-3.4-4.7-6.2-5.7z"/>
        </g>
        <path fill="#FFA800" d="M17 40C7.6 40 0 32.4 0 23S7.6 6 17 6h12.8c2.4 0 4.3 1.9 4.3 4.3V23c0 9.4-7.6 17-17.1 17z"/>
        <g fill="#FFF" transform="translate(9 14)">
            <circle cx="8.2" cy="3.8" r="3.4"/>
            <path d="M.7 8.3l5.9 5.9v3.3h2.9v-3.3l5.9-5.9z"/>
        </g>
    </g>
</svg>
