<?xml version="1.0" encoding="UTF-8"?>
<svg width="177px" height="40px" viewBox="0 0 177 40" version="1.1" xmlns="http://www.w3.org/2000/svg" xmlns:xlink="http://www.w3.org/1999/xlink">
    <!-- Generator: sketchtool 46.2 (44496) - http://www.bohemiancoding.com/sketch -->
    <title>D4E479B2-3191-4EEC-AF6A-88A3C19AC4A2</title>
    <desc>Created with sketchtool.</desc>
    <defs></defs>
    <g id="Dev-guide" stroke="none" stroke-width="1" fill="none" fill-rule="evenodd">
        <g id="freshdesk-design-guide-ui-components" transform="translate(-175.000000, -647.000000)" fill-rule="nonzero">
            <g id="freshchat-light-bg" transform="translate(175.000000, 647.000000)">
                <g id="Group" transform="translate(39.000000, 0.000000)" fill="#4D4D4D">
                    <path d="M9.6,1 C4.6,1 2.8,4.5 2.8,7.8 L2.8,9.8 L1.7,9.8 C0.9,9.8 0.3,10.4 0.3,11.2 C0.3,12 0.9,12.6 1.7,12.6 L2.8,12.6 L2.8,26.4 C2.8,27.2 3.4,27.8 4.2,27.8 C5,27.8 5.6,27.2 5.6,26.4 L5.6,12.5 L8.8,12.5 C9.6,12.5 10.2,11.9 10.2,11.1 C10.2,10.3 9.6,9.7 8.8,9.7 L5.6,9.7 L5.6,7.7 C5.6,5.9 6.3,3.7 9.5,3.7 C10.3,3.7 10.9,3.1 10.9,2.3 C10.9,1.5 10.4,1 9.6,1 Z" id="Shape"></path>
                    <path d="M20.9,9.3 C18.7,9.3 16.9,10.2 15.9,11.7 L15.9,10.9 C15.9,10.1 15.3,9.5 14.5,9.5 C13.7,9.5 13.1,10.1 13.1,10.9 L13.1,26.3 C13.1,27.1 13.7,27.7 14.5,27.7 C15.3,27.7 15.9,27.1 15.9,26.3 L15.9,17.8 C15.9,14.2 17.8,12.1 20.9,12.1 C21.7,12.1 22.3,11.5 22.3,10.7 C22.3,9.9 21.7,9.3 20.9,9.3 Z" id="Shape"></path>
                    <path d="M38.7,16.9 C38.7,16.1 38.6,13.9 37.3,12.1 C36,10.2 34,9.2 31.3,9.2 C26.2,9.2 23.3,12.6 23.3,18.5 C23.3,24.6 26.2,27.9 31.7,27.9 C35.4,27.9 37.4,26.1 37.8,25.7 C38,25.5 38.3,25.2 38.3,24.7 C38.3,24 37.7,23.4 37,23.4 C36.6,23.4 36.4,23.5 36.2,23.7 C35.1,24.5 33.9,25.3 31.8,25.3 C28.5,25.3 26.4,23.1 26.3,19.6 L37,19.6 C38.7,19.5 38.7,17.9 38.7,16.9 Z M31.3,11.9 C34.3,11.9 35.8,13.6 35.9,16.9 L26.2,16.9 C26.5,13.7 28.3,11.9 31.3,11.9 Z" id="Shape"></path>
                    <path d="M48.5,17.1 C46.3,16.4 44.5,15.7 44.5,14.1 C44.5,12.3 46.5,12.1 47.6,12.1 C49.7,12.1 50.7,12.8 51.6,13.6 C51.9,13.9 52.2,14 52.6,14 C53.3,14 53.9,13.4 53.9,12.7 C53.9,12.3 53.7,12 53.6,11.8 C52.4,10.2 50.3,9.3 47.7,9.3 C44,9.3 41.7,11.1 41.7,14.1 C41.7,17.7 44.9,18.8 47.7,19.8 C49.8,20.5 51.7,21.1 51.7,22.7 C51.7,24.8 49.3,25.2 47.9,25.2 C46,25.2 44.5,24.6 43.3,23.4 C42.9,23 42.6,23 42.3,23 C41.6,23 41,23.6 41,24.3 C41,24.6 41.1,24.8 41.3,25.2 C42.4,26.6 44.9,28 48,28 C52.2,28 54.7,26 54.7,22.8 C54.4,19.1 51.3,18.1 48.5,17.1 Z" id="Shape"></path>
                    <path d="M65.8,9.2 C63.8,9.2 62,10 61,11.3 L61,1.4 C61,0.6 60.4,0 59.6,0 C58.8,0 58.2,0.6 58.2,1.4 L58.2,26.3 C58.2,27.1 58.8,27.7 59.6,27.7 C60.4,27.7 61,27.1 61,26.3 L61,16.9 C61,13.5 62.6,11.8 65.8,11.8 C68.9,11.8 70.1,13.2 70.1,16.6 L70.1,26.2 C70.1,27 70.7,27.6 71.5,27.6 C72.3,27.6 72.9,27 72.9,26.2 L72.9,16.2 C73,11.6 70.6,9.2 65.8,9.2 Z" id="Shape"></path>
                    <path d="M89.1,23.4 C88.8,23.4 88.6,23.5 88.2,23.7 C87.4,24.3 86.1,25.3 84,25.3 C80.6,25.3 78.9,23.1 78.9,18.6 C78.9,14.2 80.6,11.9 84,11.9 C86.4,11.9 87.4,13 87.9,13.6 C88.2,14 88.6,14.1 89,14.1 C89.8,14.1 90.3,13.5 90.3,12.8 C90.3,12.5 90.2,12.3 90,11.9 C89.7,11.4 87.8,9.2 84,9.2 C78.7,9.2 76,12.4 76,18.5 C76,24.6 78.8,27.9 84,27.9 C87.3,27.9 89.2,26.3 89.9,25.8 C90.3,25.4 90.5,25.1 90.5,24.7 C90.4,24 89.8,23.4 89.1,23.4 Z" id="Shape"></path>
                    <path d="M101.1,9.2 C99.1,9.2 97.3,10 96.3,11.3 L96.3,1.4 C96.3,0.6 95.7,0 94.9,0 C94.1,0 93.5,0.6 93.5,1.4 L93.5,26.3 C93.5,27.1 94.1,27.7 94.9,27.7 C95.7,27.7 96.3,27.1 96.3,26.3 L96.3,16.9 C96.3,13.5 97.9,11.8 101.1,11.8 C104.2,11.8 105.4,13.2 105.4,16.6 L105.4,26.2 C105.4,27 106,27.6 106.8,27.6 C107.6,27.6 108.2,27 108.2,26.2 L108.2,16.2 C108.3,11.6 105.9,9.2 101.1,9.2 Z" id="Shape"></path>
                    <path d="M118.9,9.2 C115,9.2 113.1,11.1 112.4,12.3 C112.3,12.5 112.2,12.7 112.2,13.1 C112.2,13.8 112.8,14.4 113.5,14.4 C113.9,14.4 114.3,14.2 114.7,13.8 L114.7,13.8 C115.9,12.5 117.1,11.9 118.9,11.9 C121.6,11.9 123.1,13.4 123.1,15.8 L123.1,16.6 L118,16.6 C113.8,16.6 111.1,18.7 111.1,22.2 C111.1,25.7 113.6,27.9 117.9,27.9 C120.1,27.9 122,27.1 123.1,25.7 L123.1,26.3 C123.1,27.1 123.7,27.7 124.5,27.7 C125.3,27.7 125.9,27.1 125.9,26.3 L125.9,15.9 C126,11.8 123.3,9.2 118.9,9.2 Z M118.2,25.3 C116.3,25.3 114.1,24.8 114.1,22.3 C114.1,19.7 116.6,19.3 118,19.3 L123.1,19.3 L123.1,20.7 C123.2,23.8 120.6,25.3 118.2,25.3 Z" id="Shape"></path>
                    <path d="M135.9,25 C134.7,25 133.9,24.2 133.9,22.7 L133.9,12.5 L136.1,12.5 C136.9,12.5 137.5,11.9 137.5,11.1 C137.5,10.3 136.9,9.7 136.1,9.7 L133.9,9.7 L133.9,6 C133.9,5.2 133.2,4.6 132.5,4.6 C131.7,4.6 131.1,5.3 131.1,6 L131.1,9.7 L129.9,9.7 C129.1,9.7 128.5,10.3 128.5,11.1 C128.5,11.9 129.1,12.5 129.9,12.5 L131.1,12.5 L131.1,22.7 C131.1,25.7 133,27.7 136,27.7 C136.8,27.7 137.4,27.1 137.4,26.3 C137.3,25.6 136.6,25 135.9,25 Z" id="Shape"></path>
                </g>
                <path d="M16.9501466,40 L16.9501466,40 C7.57771261,40 0,32.4 0,23 L0,23 C0,13.6 7.57771261,6 16.9501466,6 L29.71261,6 C32.1055718,6 34,7.9 34,10.3 L34,23 C34,32.4 26.4222874,40 16.9501466,40 Z" id="Shape" fill="#45A4EC"></path>
                <path d="M22.3,16 L13.8,16 C11.4,16 9.5,17.9 9.5,20.3 L9.5,27.6 C9.5,28.1 9.9,28.5 10.4,28.5 L22.2,28.5 C24.6,28.5 26.5,26.6 26.5,24.2 L26.5,20.3 C26.5,17.9 24.6,16 22.3,16 Z M19.2,25.1 L13,25.1 C12.5,25.1 12.2,24.7 12.2,24.3 C12.2,23.9 12.6,23.5 13,23.5 L19.2,23.5 C19.7,23.5 20,23.9 20,24.3 C20,24.7 19.7,25.1 19.2,25.1 Z M23,21.1 L13,21.1 C12.5,21.1 12.2,20.7 12.2,20.3 C12.2,19.8 12.6,19.5 13,19.5 L23,19.5 C23.5,19.5 23.8,19.9 23.8,20.3 C23.8,20.7 23.4,21.1 23,21.1 Z" id="Shape" fill="#FFFFFF"></path>
            </g>
        </g>
    </g>
</svg>