<?xml version="1.0" encoding="utf-8"?>
<!-- Generator: Adobe Illustrator 22.0.1, SVG Export Plug-In . SVG Version: 6.00 Build 0)  -->
<svg version="1.1" id="Layer_1" xmlns="http://www.w3.org/2000/svg" xmlns:xlink="http://www.w3.org/1999/xlink" x="0px" y="0px"
	 viewBox="0 0 182.9 40" style="enable-background:new 0 0 182.9 40;" xml:space="preserve">
<style type="text/css">
	.st0{fill:none;}
	.st1{fill:#ED7C02;}
	.st2{fill:#FFFFFF;}
	.st3{fill:#4D4D4D;}
</style>
<rect x="-1532.5" y="-469.2" class="st0" width="1440" height="1768"/>
<g>
	<g>
		<defs>
			<rect id="SVGID_1_" x="-1532.5" y="-469.2" width="1440" height="1768"/>
		</defs>
		<clipPath id="SVGID_2_">
			<use xlink:href="#SVGID_1_"  style="overflow:visible;"/>
		</clipPath>
	</g>
</g>
<g>
	<defs>
		<rect id="SVGID_3_" x="-1532.5" y="-469.2" width="1440" height="1768"/>
	</defs>
	<clipPath id="SVGID_4_">
		<use xlink:href="#SVGID_3_"  style="overflow:visible;"/>
	</clipPath>
</g>
<g>
	<g>
		<path class="st1" d="M17,40L17,40C7.6,40,0,32.4,0,23v0c0-9.4,7.6-17,17-17h12.8c2.4,0,4.3,1.9,4.3,4.3V23
			C34.1,32.4,26.5,40,17,40z"/>
		<g>
			<path class="st2" d="M13.3,22.7c0.2,0,0.5,0.1,0.6,0.3l1.7,2.3l1.9-5.5c0.1-0.3,0.3-0.4,0.6-0.5c0.3,0,0.5,0.1,0.7,0.3l2.4,3.2
				h4.1c-0.1-4.5-3.8-8.1-8.3-8.1c-4.5,0-8.2,3.6-8.3,8.1H13.3z"/>
			<path class="st2" d="M20.9,24.2c-0.2,0-0.5-0.1-0.6-0.3l-1.8-2.4l-1.9,5.6c-0.1,0.3-0.3,0.5-0.6,0.5c0,0-0.1,0-0.1,0
				c-0.2,0-0.5-0.1-0.6-0.3l-2.3-3.1H8.8c0.6,4,4,7.1,8.2,7.1c4.2,0,7.6-3.1,8.2-7.1H20.9z"/>
		</g>
	</g>
	<g>
		<path class="st3" d="M48.6,0.9c-2.2,0-4,0.7-5.1,1.9c-1.1,1.3-1.7,2.9-1.7,4.8v2h-1c-0.4,0-0.7,0.1-1,0.4c-0.3,0.3-0.4,0.6-0.4,1
			c0,0.4,0.1,0.7,0.4,1c0.3,0.3,0.6,0.4,1,0.4h1v13.8c0,0.4,0.1,0.8,0.4,1.1c0.3,0.3,0.6,0.4,1,0.4s0.7-0.1,1-0.4
			c0.3-0.3,0.4-0.6,0.4-1.1V12.5h3.2c0.4,0,0.7-0.1,1-0.4s0.4-0.6,0.4-1c0-0.4-0.1-0.7-0.4-1c-0.3-0.3-0.6-0.4-1-0.4h-3.2v-2
			c0-1.2,0.3-2.2,0.9-3c0.6-0.7,1.6-1.1,2.9-1.1c0.4,0,0.7-0.1,1-0.4C49.9,3,50,2.7,50,2.3c0-0.4-0.1-0.7-0.4-1
			C49.4,1.1,49,0.9,48.6,0.9z"/>
		<path class="st3" d="M60,9.3c-1.3,0-2.5,0.3-3.4,0.9c-0.7,0.4-1.2,0.9-1.6,1.5v-0.7c0-0.4-0.1-0.8-0.4-1.1c-0.3-0.3-0.6-0.4-1-0.4
			c-0.4,0-0.7,0.1-1,0.4c-0.3,0.3-0.4,0.6-0.4,1.1v15.4c0,0.4,0.1,0.8,0.4,1.1c0.3,0.3,0.6,0.4,1,0.4c0.4,0,0.7-0.1,1-0.4
			c0.3-0.3,0.4-0.6,0.4-1.1v-8.5c0-1.7,0.4-3.1,1.3-4.2c0.9-1,2.1-1.5,3.7-1.5c0.4,0,0.7-0.1,1-0.4s0.4-0.6,0.4-1
			c0-0.4-0.1-0.7-0.4-1S60.4,9.3,60,9.3z"/>
		<path class="st3" d="M77,13c-0.3-0.7-0.8-1.4-1.3-1.9c-0.5-0.6-1.3-1-2.2-1.4c-0.9-0.4-2-0.6-3.2-0.6c-2.5,0-4.6,0.8-6,2.5
			c-1.4,1.6-2.1,3.9-2.1,6.9c0,3.1,0.7,5.5,2.2,7.1c1.5,1.6,3.6,2.3,6.2,2.3c2.6,0,4.6-0.7,6.1-2.2c0.3-0.3,0.5-0.7,0.5-1.1
			c0-0.4-0.1-0.7-0.4-1c-0.3-0.3-0.6-0.4-1-0.4c-0.3,0-0.6,0.1-0.8,0.3c-1.4,1-2.9,1.6-4.4,1.6c-1.7,0-3-0.5-4-1.6
			c-0.9-1-1.4-2.4-1.5-4.1h10.8c0.4,0,0.7-0.1,1-0.2c0.3-0.2,0.5-0.4,0.6-0.8c0.1-0.3,0.1-0.5,0.2-0.8c0-0.2,0-0.5,0-0.9
			c0-0.6-0.1-1.2-0.2-1.8C77.5,14.4,77.3,13.7,77,13z M70.3,11.9c3,0,4.5,1.6,4.6,5h-9.7c0.2-1.5,0.6-2.7,1.5-3.6
			C67.6,12.3,68.8,11.9,70.3,11.9z"/>
		<path class="st3" d="M89.9,17.9c-1-0.4-2-0.7-3-1.1c-1-0.3-1.8-0.7-2.4-1.2c-0.6-0.4-0.9-1-0.9-1.6c0-1.4,1-2,3.1-2
			c1.6,0,2.9,0.5,4,1.5c0.3,0.3,0.6,0.4,1,0.4c0.4,0,0.7-0.1,1-0.4c0.3-0.3,0.4-0.6,0.4-1c0-0.3-0.1-0.6-0.3-0.9
			c-1.3-1.7-3.3-2.5-6-2.5c-1.8,0-3.2,0.4-4.3,1.2c-1.1,0.8-1.7,2-1.7,3.6c0,1.2,0.4,2.2,1.1,3c0.7,0.8,1.6,1.4,2.6,1.8
			c1,0.4,2,0.7,3,1c0.9,0.3,1.8,0.7,2.4,1.1c0.6,0.4,0.9,0.9,0.9,1.6c0,0.8-0.3,1.5-1,1.8c-0.7,0.4-1.6,0.6-2.8,0.6
			c-1.9,0-3.5-0.6-4.6-1.8c-0.3-0.3-0.6-0.5-1-0.5c-0.4,0-0.7,0.1-1,0.4s-0.4,0.6-0.4,1c0,0.3,0.1,0.6,0.3,0.9
			c0.6,0.7,1.5,1.4,2.7,2c1.2,0.6,2.5,0.9,4,0.9c1.9,0,3.6-0.4,4.8-1.3c1.3-0.9,1.9-2.2,1.9-3.9c0-1.2-0.4-2.2-1.1-3
			C91.8,18.9,90.9,18.3,89.9,17.9z"/>
		<path class="st3" d="M104.9,9.2c-1.2,0-2.3,0.3-3.3,0.8c-0.6,0.4-1.2,0.8-1.5,1.3V1.4c0-0.4-0.1-0.8-0.4-1.1
			c-0.3-0.3-0.6-0.4-1-0.4c-0.4,0-0.7,0.1-1,0.4c-0.3,0.3-0.4,0.6-0.4,1.1v24.9c0,0.4,0.1,0.8,0.4,1.1c0.3,0.3,0.6,0.4,1,0.4
			c0.4,0,0.7-0.1,1-0.4c0.3-0.3,0.4-0.6,0.4-1.1v-9.4c0-3.4,1.6-5.1,4.8-5.1c1.6,0,2.8,0.4,3.4,1.2c0.6,0.8,0.9,2,0.9,3.6v9.7
			c0,0.4,0.1,0.8,0.4,1.1c0.3,0.3,0.6,0.4,1.1,0.4s0.8-0.1,1.1-0.4c0.3-0.3,0.4-0.6,0.4-1.1V16.2C112.2,11.5,109.7,9.2,104.9,9.2z"
			/>
		<path class="st3" d="M124.1,9.2c-1.2,0-2.3,0.3-3.3,0.8c-0.7,0.4-1.2,0.8-1.6,1.3v-0.4c0-0.4-0.1-0.7-0.4-1
			c-0.3-0.3-0.6-0.4-1-0.4c-0.4,0-0.7,0.1-1,0.4c-0.3,0.3-0.4,0.6-0.4,1v22.8c0,0.4,0.1,0.7,0.4,1c0.3,0.3,0.6,0.4,1,0.4
			c0.4,0,0.7-0.1,1-0.4c0.3-0.3,0.4-0.6,0.4-1v-7.8c0.4,0.5,1,1,1.7,1.3c0.9,0.5,2,0.8,3.3,0.8c2.6,0,4.6-0.8,6.1-2.4
			c1.4-1.6,2.1-3.9,2.1-7c0-3.1-0.7-5.4-2.1-7C128.7,10,126.7,9.2,124.1,9.2z M124.1,25.2c-1.5,0-2.7-0.5-3.6-1.6
			c-0.9-1.1-1.4-2.8-1.4-5.1c0-2.3,0.5-4,1.4-5c0.9-1.1,2.1-1.6,3.5-1.6c3.6,0,5.3,2.2,5.3,6.7C129.3,23.1,127.6,25.2,124.1,25.2z"
			/>
		<path class="st3" d="M137,2.9c-1.1,0-1.7,0.6-1.7,1.8c0,1.1,0.6,1.7,1.7,1.7s1.7-0.6,1.7-1.7C138.7,3.5,138.1,2.9,137,2.9z"/>
		<path class="st3" d="M137,9.4c-0.4,0-0.8,0.1-1.1,0.4c-0.3,0.3-0.4,0.6-0.4,1.1v15.4c0,0.4,0.1,0.8,0.4,1.1
			c0.3,0.3,0.6,0.4,1.1,0.4s0.8-0.1,1.1-0.4c0.3-0.3,0.4-0.6,0.4-1.1V10.9c0-0.4-0.1-0.8-0.4-1.1C137.8,9.5,137.4,9.4,137,9.4z"/>
		<path class="st3" d="M150.7,9.2c-1.2,0-2.3,0.3-3.3,0.8c-0.6,0.4-1.2,0.8-1.5,1.3v-0.4c0-0.4-0.1-0.8-0.4-1.1
			c-0.3-0.3-0.6-0.4-1-0.4c-0.4,0-0.7,0.1-1,0.4c-0.3,0.3-0.4,0.6-0.4,1.1v15.4c0,0.4,0.1,0.8,0.4,1.1c0.3,0.3,0.6,0.4,1,0.4
			c0.4,0,0.7-0.1,1-0.4c0.3-0.3,0.4-0.6,0.4-1.1v-9.4c0-3.4,1.6-5.1,4.8-5.1c1.6,0,2.8,0.4,3.4,1.2c0.6,0.8,0.9,2,0.9,3.6v9.7
			c0,0.4,0.1,0.8,0.4,1.1c0.3,0.3,0.6,0.4,1.1,0.4c0.4,0,0.8-0.1,1-0.4c0.3-0.3,0.4-0.6,0.4-1.1V16.2
			C157.9,11.5,155.5,9.2,150.7,9.2z"/>
		<path class="st3" d="M174.6,11.2c-1.4-1.3-3.4-2-5.7-2c-2.6,0-4.6,0.8-6,2.4c-1.4,1.6-2.1,3.9-2.1,7s0.7,5.5,2.1,7
			c1.4,1.6,3.4,2.3,6,2.3c2,0,3.7-0.6,4.9-1.9v1.5c0,1.6-0.5,2.8-1.4,3.6c-0.9,0.8-2.2,1.2-3.7,1.2c-1.7,0-3.2-0.6-4.3-1.7
			c-0.3-0.3-0.7-0.5-1.1-0.5c-0.4,0-0.7,0.1-1,0.4c-0.3,0.3-0.4,0.6-0.4,1c0,0.3,0.1,0.6,0.3,0.8c1.5,1.8,3.7,2.7,6.5,2.7
			c2.3,0,4.3-0.6,5.8-1.9c1.5-1.2,2.3-3.2,2.3-5.7V16.9C176.8,14.5,176,12.5,174.6,11.2z M171.7,24.5c-0.8,0.5-1.7,0.7-2.7,0.7
			c-3.5,0-5.2-2.2-5.2-6.7c0-4.5,1.7-6.7,5.2-6.7c1.4,0,2.6,0.4,3.5,1.3c0.9,0.9,1.4,2.1,1.4,3.8v5.4l-0.5,0.7
			C173,23.5,172.5,24,171.7,24.5z"/>
	</g>
</g>
</svg>
